<?xml version="1.0" encoding="iso-8859-1"?>
<!-- Generator: Adobe Illustrator 19.0.0, SVG Export Plug-In . SVG Version: 6.00 Build 0)  -->
<svg version="1.1" id="Layer_1" xmlns="http://www.w3.org/2000/svg" xmlns:xlink="http://www.w3.org/1999/xlink" x="0px" y="0px"
	 viewBox="0 0 512 512" style="enable-background:new 0 0 512 512;" xml:space="preserve">
<path style="fill:#415E72;" d="M0,355.2v-324c0.104-5.704,4.696-10.296,10.4-10.4h491.2c5.704,0.104,10.296,4.696,10.4,10.4v324H0z"
	/>
<g>
	<path style="fill:#CFDCE5;" d="M512,355.2v41.6c-0.104,5.704-4.696,10.296-10.4,10.4H10.4c-5.704-0.104-10.296-4.696-10.4-10.4
		v-41.6H512z"/>
	<rect x="146.4" y="480.8" style="fill:#CFDCE5;" width="219.2" height="10.4"/>
</g>
<polygon style="fill:#AAC1CE;" points="328.8,480.8 183.2,480.8 193.6,407.2 318.4,407.2 "/>
<rect x="20.8" y="41.6" style="fill:#FFFFFF;" width="470.4" height="292.8"/>
<polygon style="fill:#8BA0AE;" points="318.4,407.2 193.6,407.2 187.792,448.28 320.272,420.424 "/>
<path style="fill:#E04F5F;" d="M84.368,64.8h149.728c10.336,0,18.72,8.384,18.72,18.72v99.68c0,10.336-8.384,18.72-18.72,18.72
	H84.368c-10.336,0-18.72-8.384-18.72-18.72V83.52C65.648,73.184,74.032,64.8,84.368,64.8z"/>
<polygon style="fill:#FFFFFF;" points="136.56,97.544 198.6,133.36 136.56,169.184 "/>
<g>
	<rect x="71.824" y="237.576" style="fill:#CFDCE5;" width="176.24" height="6.616"/>
	<rect x="71.824" y="257.76" style="fill:#CFDCE5;" width="176.24" height="6.616"/>
	<rect x="71.824" y="277.952" style="fill:#CFDCE5;" width="176.24" height="6.616"/>
	<rect x="71.824" y="298.16" style="fill:#CFDCE5;" width="176.24" height="6.616"/>
	<rect x="291.04" y="152.8" style="fill:#CFDCE5;" width="155.336" height="30.232"/>
</g>
<rect x="291.04" y="152.8" style="fill:#415E72;" width="32.32" height="30.232"/>
<rect x="291.04" y="109.344" style="fill:#CFDCE5;" width="155.336" height="30.232"/>
<rect x="291.04" y="109.344" style="fill:#E04F5F;" width="32.32" height="30.232"/>
<rect x="291.04" y="65.888" style="fill:#CFDCE5;" width="155.336" height="30.232"/>
<rect x="291.04" y="65.888" style="fill:#415E72;" width="32.32" height="30.232"/>
<rect x="291.04" y="283.192" style="fill:#CFDCE5;" width="155.336" height="30.232"/>
<rect x="291.04" y="283.192" style="fill:#E04F5F;" width="32.32" height="30.232"/>
<rect x="291.04" y="239.728" style="fill:#CFDCE5;" width="155.336" height="30.232"/>
<rect x="291.04" y="239.728" style="fill:#415E72;" width="32.32" height="30.232"/>
<rect x="291.04" y="196.264" style="fill:#CFDCE5;" width="155.336" height="30.232"/>
<rect x="291.04" y="196.264" style="fill:#E04F5F;" width="32.32" height="30.232"/>
<g>
</g>
<g>
</g>
<g>
</g>
<g>
</g>
<g>
</g>
<g>
</g>
<g>
</g>
<g>
</g>
<g>
</g>
<g>
</g>
<g>
</g>
<g>
</g>
<g>
</g>
<g>
</g>
<g>
</g>
</svg>
